<svg width="1304" height="956" viewBox="0 0 1304 956" fill="none" xmlns="http://www.w3.org/2000/svg">
<rect width="603" height="228" transform="translate(242 728)" fill="white"/>
<path d="M782.085 867V881.406H761.378C763.565 874.668 769.116 869.503 776.079 867.866C778.059 867.4 780.068 867.112 782.085 867Z" fill="#FCA311"/>
<path d="M782.085 867V881.406H761.378C763.565 874.668 769.116 869.503 776.079 867.866C778.059 867.4 780.068 867.112 782.085 867Z" fill="url(#paint0_linear_0_1)"/>
<path d="M785.915 867V896.756H807.521C808.282 892.215 808.136 887.56 807.083 883.062C805.319 875.522 799.444 869.634 791.921 867.866C789.942 867.4 787.932 867.112 785.915 867Z" fill="#FCA311"/>
<path d="M785.915 867V896.756H807.521C808.282 892.215 808.136 887.56 807.083 883.062C805.319 875.522 799.444 869.634 791.921 867.866C789.942 867.4 787.932 867.112 785.915 867Z" fill="url(#paint1_linear_0_1)"/>
<path d="M806.622 900.594H785.915V915C787.932 914.888 789.942 914.6 791.921 914.134C798.884 912.497 804.435 907.332 806.622 900.594Z" fill="#FCA311"/>
<path d="M806.622 900.594H785.915V915C787.932 914.888 789.942 914.6 791.921 914.134C798.884 912.497 804.435 907.332 806.622 900.594Z" fill="url(#paint2_linear_0_1)"/>
<path d="M782.085 915V885.244H760.479C759.718 889.785 759.864 894.44 760.917 898.938C762.681 906.478 768.556 912.366 776.079 914.134C778.059 914.6 780.068 914.888 782.085 915Z" fill="#FCA311"/>
<path d="M782.085 915V885.244H760.479C759.718 889.785 759.864 894.44 760.917 898.938C762.681 906.478 768.556 912.366 776.079 914.134C778.059 914.6 780.068 914.888 782.085 915Z" fill="url(#paint3_linear_0_1)"/>
<path d="M652.843 867.416C650.479 866.861 648.019 866.861 645.655 867.416C642.559 868.142 640.142 870.559 639.416 873.655C638.861 876.019 638.861 878.479 639.416 880.843C640.142 883.939 642.559 886.357 645.655 887.083C648.019 887.637 650.479 887.637 652.843 887.083C655.939 886.357 658.357 883.939 659.083 880.843C659.637 878.479 659.637 876.019 659.083 873.655C658.357 870.559 655.939 868.142 652.843 867.416Z" fill="#FCA311"/>
<path d="M652.843 867.416C650.479 866.861 648.019 866.861 645.655 867.416C642.559 868.142 640.142 870.559 639.416 873.655C638.861 876.019 638.861 878.479 639.416 880.843C640.142 883.939 642.559 886.357 645.655 887.083C648.019 887.637 650.479 887.637 652.843 887.083C655.939 886.357 658.357 883.939 659.083 880.843C659.637 878.479 659.637 876.019 659.083 873.655C658.357 870.559 655.939 868.142 652.843 867.416Z" fill="url(#paint4_linear_0_1)"/>
<path d="M652.843 894.917C650.479 894.363 648.019 894.363 645.655 894.917C642.559 895.643 640.142 898.061 639.416 901.157C638.861 903.521 638.861 905.981 639.416 908.345C640.142 911.441 642.559 913.858 645.655 914.584C648.019 915.139 650.479 915.139 652.843 914.584C655.939 913.858 658.357 911.441 659.083 908.345C659.637 905.981 659.637 903.521 659.083 901.157C658.357 898.061 655.939 895.643 652.843 894.917Z" fill="#FCA311"/>
<path d="M652.843 894.917C650.479 894.363 648.019 894.363 645.655 894.917C642.559 895.643 640.142 898.061 639.416 901.157C638.861 903.521 638.861 905.981 639.416 908.345C640.142 911.441 642.559 913.858 645.655 914.584C648.019 915.139 650.479 915.139 652.843 914.584C655.939 913.858 658.357 911.441 659.083 908.345C659.637 905.981 659.637 903.521 659.083 901.157C658.357 898.061 655.939 895.643 652.843 894.917Z" fill="url(#paint5_linear_0_1)"/>
<path d="M680.345 867.416C677.981 866.861 675.521 866.861 673.157 867.416C670.061 868.142 667.643 870.559 666.917 873.655C666.363 876.019 666.363 878.479 666.917 880.843C667.643 883.939 670.061 886.357 673.157 887.083C675.521 887.637 677.981 887.637 680.345 887.083C683.441 886.357 685.858 883.939 686.584 880.843C687.139 878.479 687.139 876.019 686.584 873.655C685.858 870.559 683.441 868.142 680.345 867.416Z" fill="#FCA311"/>
<path d="M680.345 867.416C677.981 866.861 675.521 866.861 673.157 867.416C670.061 868.142 667.643 870.559 666.917 873.655C666.363 876.019 666.363 878.479 666.917 880.843C667.643 883.939 670.061 886.357 673.157 887.083C675.521 887.637 677.981 887.637 680.345 887.083C683.441 886.357 685.858 883.939 686.584 880.843C687.139 878.479 687.139 876.019 686.584 873.655C685.858 870.559 683.441 868.142 680.345 867.416Z" fill="url(#paint6_linear_0_1)"/>
<path d="M680.345 894.917C677.981 894.363 675.521 894.363 673.157 894.917C670.061 895.643 667.643 898.061 666.917 901.157C666.363 903.521 666.363 905.981 666.917 908.345C667.643 911.441 670.061 913.858 673.157 914.584C675.521 915.139 677.981 915.139 680.345 914.584C683.441 913.858 685.858 911.441 686.584 908.345C687.139 905.981 687.139 903.521 686.584 901.157C685.858 898.061 683.441 895.643 680.345 894.917Z" fill="#FCA311"/>
<path d="M680.345 894.917C677.981 894.363 675.521 894.363 673.157 894.917C670.061 895.643 667.643 898.061 666.917 901.157C666.363 903.521 666.363 905.981 666.917 908.345C667.643 911.441 670.061 913.858 673.157 914.584C675.521 915.139 677.981 915.139 680.345 914.584C683.441 913.858 685.858 911.441 686.584 908.345C687.139 905.981 687.139 903.521 686.584 901.157C685.858 898.061 683.441 895.643 680.345 894.917Z" fill="url(#paint7_linear_0_1)"/>
<path fill-rule="evenodd" clip-rule="evenodd" d="M550.92 905.485L549.522 905.793V907.652C549.522 910.839 547.518 913.55 544.722 914.555V919.56C544.722 920.908 543.647 922 542.322 922C540.996 922 539.921 920.908 539.921 919.56V914.555C537.125 913.55 535.121 910.839 535.121 907.652V905.929C534.913 905.887 534.704 905.843 534.496 905.797L533.08 905.485C526.17 903.963 520.702 898.597 518.962 891.63C517.679 886.496 517.679 881.118 518.962 875.984C520.702 869.018 526.17 863.651 533.08 862.129L534.496 861.817C539.441 860.728 544.559 860.728 549.504 861.817L550.92 862.129C557.83 863.651 563.298 869.018 565.038 875.985C566.321 881.118 566.321 886.496 565.038 891.63C563.298 898.597 557.83 903.963 550.92 905.485ZM544.722 906.508C544.443 906.53 544.165 906.548 543.886 906.563C542.565 906.635 541.242 906.631 539.921 906.552V907.652C539.921 908.999 540.996 910.092 542.322 910.092C543.647 910.092 544.722 908.999 544.722 907.652V906.508ZM544.801 874.116C545.629 874.789 545.764 876.018 545.101 876.859L541.196 881.821H546.802C547.54 881.821 548.213 882.251 548.533 882.928C548.852 883.604 548.762 884.407 548.301 884.993L541.901 893.126C541.238 893.968 540.03 894.104 539.202 893.431C538.374 892.757 538.24 891.529 538.902 890.687L542.807 885.725H537.201C536.463 885.725 535.79 885.295 535.471 884.619C535.151 883.943 535.241 883.14 535.702 882.554L542.102 874.421C542.765 873.579 543.973 873.442 544.801 874.116Z" fill="#FCA311"/>
<path fill-rule="evenodd" clip-rule="evenodd" d="M550.92 905.485L549.522 905.793V907.652C549.522 910.839 547.518 913.55 544.722 914.555V919.56C544.722 920.908 543.647 922 542.322 922C540.996 922 539.921 920.908 539.921 919.56V914.555C537.125 913.55 535.121 910.839 535.121 907.652V905.929C534.913 905.887 534.704 905.843 534.496 905.797L533.08 905.485C526.17 903.963 520.702 898.597 518.962 891.63C517.679 886.496 517.679 881.118 518.962 875.984C520.702 869.018 526.17 863.651 533.08 862.129L534.496 861.817C539.441 860.728 544.559 860.728 549.504 861.817L550.92 862.129C557.83 863.651 563.298 869.018 565.038 875.985C566.321 881.118 566.321 886.496 565.038 891.63C563.298 898.597 557.83 903.963 550.92 905.485ZM544.722 906.508C544.443 906.53 544.165 906.548 543.886 906.563C542.565 906.635 541.242 906.631 539.921 906.552V907.652C539.921 908.999 540.996 910.092 542.322 910.092C543.647 910.092 544.722 908.999 544.722 907.652V906.508ZM544.801 874.116C545.629 874.789 545.764 876.018 545.101 876.859L541.196 881.821H546.802C547.54 881.821 548.213 882.251 548.533 882.928C548.852 883.604 548.762 884.407 548.301 884.993L541.901 893.126C541.238 893.968 540.03 894.104 539.202 893.431C538.374 892.757 538.24 891.529 538.902 890.687L542.807 885.725H537.201C536.463 885.725 535.79 885.295 535.471 884.619C535.151 883.943 535.241 883.14 535.702 882.554L542.102 874.421C542.765 873.579 543.973 873.442 544.801 874.116Z" fill="url(#paint8_linear_0_1)"/>
<path fill-rule="evenodd" clip-rule="evenodd" d="M776.079 769.917C781.289 768.694 786.711 768.694 791.921 769.917C799.444 771.681 805.319 777.556 807.083 785.079C808.306 790.289 808.306 795.711 807.083 800.921C805.319 808.444 799.444 814.319 791.921 816.083C786.711 817.306 781.289 817.306 776.079 816.083C768.556 814.319 762.681 808.444 760.917 800.921C759.694 795.711 759.694 790.289 760.917 785.079C762.681 777.556 768.556 771.681 776.079 769.917ZM787.973 787.7C788.807 787.366 789.634 788.193 789.301 789.027L787.22 794.229C786.857 795.137 786.137 795.856 785.229 796.22L780.027 798.3C779.194 798.634 778.366 797.807 778.7 796.973L780.781 791.771C781.144 790.863 781.863 790.144 782.772 789.78L787.973 787.7ZM792.145 790.165C793.479 786.83 790.17 783.522 786.836 784.855L781.634 786.936C779.947 787.611 778.611 788.947 777.936 790.634L775.856 795.835C774.522 799.17 777.831 802.478 781.165 801.145L786.367 799.064C788.053 798.389 789.39 797.053 790.064 795.366L792.145 790.165Z" fill="#FCA311"/>
<path fill-rule="evenodd" clip-rule="evenodd" d="M776.079 769.917C781.289 768.694 786.711 768.694 791.921 769.917C799.444 771.681 805.319 777.556 807.083 785.079C808.306 790.289 808.306 795.711 807.083 800.921C805.319 808.444 799.444 814.319 791.921 816.083C786.711 817.306 781.289 817.306 776.079 816.083C768.556 814.319 762.681 808.444 760.917 800.921C759.694 795.711 759.694 790.289 760.917 785.079C762.681 777.556 768.556 771.681 776.079 769.917ZM787.973 787.7C788.807 787.366 789.634 788.193 789.301 789.027L787.22 794.229C786.857 795.137 786.137 795.856 785.229 796.22L780.027 798.3C779.194 798.634 778.366 797.807 778.7 796.973L780.781 791.771C781.144 790.863 781.863 790.144 782.772 789.78L787.973 787.7ZM792.145 790.165C793.479 786.83 790.17 783.522 786.836 784.855L781.634 786.936C779.947 787.611 778.611 788.947 777.936 790.634L775.856 795.835C774.522 799.17 777.831 802.478 781.165 801.145L786.367 799.064C788.053 798.389 789.39 797.053 790.064 795.366L792.145 790.165Z" fill="url(#paint9_linear_0_1)"/>
<path fill-rule="evenodd" clip-rule="evenodd" d="M652.147 771C657.154 771 661.448 773.854 663.604 777.975C666.25 776.793 669.197 776.134 672.302 776.134C683.701 776.134 693 785.027 693 796.067C693 807.107 683.7 816 672.302 816L648.116 816C639.8 816 633 809.51 633 801.433C633 796.181 635.881 791.597 640.175 789.037C639.547 787.5 639.202 785.818 639.202 784.059C639.202 776.92 644.924 771 652.147 771ZM643.388 784.059C643.388 779.033 647.383 775.091 652.147 775.091C655.54 775.091 658.534 777.08 659.985 780.047C657.365 781.918 655.218 784.372 653.753 787.216C653.652 787.41 653.555 787.606 653.462 787.804C653.275 787.736 653.087 787.672 652.897 787.611C651.392 787.128 649.784 786.867 648.116 786.867C646.699 786.867 645.324 787.055 644.019 787.409C643.612 786.377 643.388 785.247 643.388 784.059Z" fill="#FCA311"/>
<path fill-rule="evenodd" clip-rule="evenodd" d="M652.147 771C657.154 771 661.448 773.854 663.604 777.975C666.25 776.793 669.197 776.134 672.302 776.134C683.701 776.134 693 785.027 693 796.067C693 807.107 683.7 816 672.302 816L648.116 816C639.8 816 633 809.51 633 801.433C633 796.181 635.881 791.597 640.175 789.037C639.547 787.5 639.202 785.818 639.202 784.059C639.202 776.92 644.924 771 652.147 771ZM643.388 784.059C643.388 779.033 647.383 775.091 652.147 775.091C655.54 775.091 658.534 777.08 659.985 780.047C657.365 781.918 655.218 784.372 653.753 787.216C653.652 787.41 653.555 787.606 653.462 787.804C653.275 787.736 653.087 787.672 652.897 787.611C651.392 787.128 649.784 786.867 648.116 786.867C646.699 786.867 645.324 787.055 644.019 787.409C643.612 786.377 643.388 785.247 643.388 784.059Z" fill="url(#paint10_linear_0_1)"/>
<path fill-rule="evenodd" clip-rule="evenodd" d="M531.147 771C536.154 771 540.448 773.854 542.604 777.975C545.25 776.793 548.197 776.134 551.302 776.134C562.701 776.134 572 785.027 572 796.067C572 807.107 562.7 816 551.302 816L527.116 816C518.8 816 512 809.51 512 801.433C512 796.181 514.881 791.597 519.175 789.037C518.547 787.5 518.202 785.818 518.202 784.059C518.202 776.92 523.924 771 531.147 771ZM522.388 784.059C522.388 779.033 526.383 775.091 531.147 775.091C534.54 775.091 537.534 777.08 538.985 780.047C536.365 781.918 534.218 784.372 532.753 787.216C532.652 787.41 532.555 787.606 532.462 787.804C532.275 787.736 532.087 787.672 531.897 787.611C530.392 787.128 528.784 786.867 527.116 786.867C525.699 786.867 524.324 787.055 523.019 787.409C522.612 786.377 522.388 785.247 522.388 784.059Z" fill="#FCA311"/>
<path fill-rule="evenodd" clip-rule="evenodd" d="M531.147 771C536.154 771 540.448 773.854 542.604 777.975C545.25 776.793 548.197 776.134 551.302 776.134C562.701 776.134 572 785.027 572 796.067C572 807.107 562.7 816 551.302 816L527.116 816C518.8 816 512 809.51 512 801.433C512 796.181 514.881 791.597 519.175 789.037C518.547 787.5 518.202 785.818 518.202 784.059C518.202 776.92 523.924 771 531.147 771ZM522.388 784.059C522.388 779.033 526.383 775.091 531.147 775.091C534.54 775.091 537.534 777.08 538.985 780.047C536.365 781.918 534.218 784.372 532.753 787.216C532.652 787.41 532.555 787.606 532.462 787.804C532.275 787.736 532.087 787.672 531.897 787.611C530.392 787.128 528.784 786.867 527.116 786.867C525.699 786.867 524.324 787.055 523.019 787.409C522.612 786.377 522.388 785.247 522.388 784.059Z" fill="url(#paint11_linear_0_1)"/>
<circle cx="367" cy="859" r="16" fill="#FCA311"/>
<circle cx="367" cy="859" r="16" fill="url(#paint12_linear_0_1)"/>
<path d="M362.193 863V860.012L359.373 854.6H361.113L362.973 858.476L364.821 854.6H366.537L363.729 860.012V863H362.193ZM369.477 863V855.836H367.029V854.6H373.473V855.836H371.013V863H369.477Z" fill="white"/>
<circle cx="407" cy="859" r="16" fill="#FCA311"/>
<circle cx="407" cy="859" r="16" fill="url(#paint13_linear_0_1)"/>
<path d="M402.929 863V854.6H404.465V861.8H408.185V863H402.929ZM409.539 863V854.6H411.075V863H409.539Z" fill="white"/>
<circle cx="327" cy="859" r="16" fill="#FCA311"/>
<circle cx="327" cy="859" r="16" fill="url(#paint14_linear_0_1)"/>
<path d="M320.816 863V854.6H322.352V863H320.816ZM327.652 863.144C326.86 863.144 326.168 862.964 325.576 862.604C324.984 862.244 324.524 861.744 324.196 861.104C323.868 860.456 323.704 859.704 323.704 858.848C323.704 857.984 323.872 857.224 324.208 856.568C324.552 855.904 325.036 855.388 325.66 855.02C326.292 854.644 327.04 854.456 327.904 854.456C328.888 854.456 329.704 854.692 330.352 855.164C331 855.636 331.42 856.288 331.612 857.12H329.896C329.768 856.728 329.536 856.424 329.2 856.208C328.864 855.984 328.432 855.872 327.904 855.872C327.064 855.872 326.416 856.14 325.96 856.676C325.504 857.204 325.276 857.932 325.276 858.86C325.276 859.788 325.5 860.508 325.948 861.02C326.404 861.524 327.02 861.776 327.796 861.776C328.556 861.776 329.128 861.572 329.512 861.164C329.904 860.748 330.14 860.204 330.22 859.532H328.096V858.38H331.768V863H330.352L330.232 861.896C329.96 862.296 329.62 862.604 329.212 862.82C328.804 863.036 328.284 863.144 327.652 863.144Z" fill="white"/>
<circle cx="287" cy="859" r="16" fill="#FCA311"/>
<circle cx="287" cy="859" r="16" fill="url(#paint15_linear_0_1)"/>
<path d="M279.816 863V854.6H285.24V855.836H281.352V858.188H284.496V859.4H281.352V863H279.816ZM286.425 863V854.6H289.797C290.669 854.6 291.333 854.804 291.789 855.212C292.253 855.612 292.485 856.128 292.485 856.76C292.485 857.288 292.341 857.712 292.053 858.032C291.773 858.344 291.429 858.556 291.021 858.668C291.501 858.764 291.897 859.004 292.209 859.388C292.521 859.764 292.677 860.204 292.677 860.708C292.677 861.372 292.437 861.92 291.957 862.352C291.477 862.784 290.797 863 289.917 863H286.425ZM287.961 858.128H289.569C290.001 858.128 290.333 858.028 290.565 857.828C290.797 857.628 290.913 857.344 290.913 856.976C290.913 856.624 290.797 856.348 290.565 856.148C290.341 855.94 290.001 855.836 289.545 855.836H287.961V858.128ZM287.961 861.752H289.677C290.133 861.752 290.485 861.648 290.733 861.44C290.989 861.224 291.117 860.924 291.117 860.54C291.117 860.148 290.985 859.84 290.721 859.616C290.457 859.392 290.101 859.28 289.653 859.28H287.961V861.752Z" fill="white"/>
<defs>
<linearGradient id="paint0_linear_0_1" x1="760" y1="866.778" x2="789.245" y2="924.311" gradientUnits="userSpaceOnUse">
<stop stop-color="#09C6F9"/>
<stop offset="1" stop-color="#045DE9"/>
</linearGradient>
<linearGradient id="paint1_linear_0_1" x1="760" y1="866.778" x2="789.245" y2="924.311" gradientUnits="userSpaceOnUse">
<stop stop-color="#09C6F9"/>
<stop offset="1" stop-color="#045DE9"/>
</linearGradient>
<linearGradient id="paint2_linear_0_1" x1="760" y1="866.778" x2="789.245" y2="924.311" gradientUnits="userSpaceOnUse">
<stop stop-color="#09C6F9"/>
<stop offset="1" stop-color="#045DE9"/>
</linearGradient>
<linearGradient id="paint3_linear_0_1" x1="760" y1="866.778" x2="789.245" y2="924.311" gradientUnits="userSpaceOnUse">
<stop stop-color="#09C6F9"/>
<stop offset="1" stop-color="#045DE9"/>
</linearGradient>
<linearGradient id="paint4_linear_0_1" x1="639" y1="866.778" x2="668.245" y2="924.311" gradientUnits="userSpaceOnUse">
<stop stop-color="#09C6F9"/>
<stop offset="1" stop-color="#045DE9"/>
</linearGradient>
<linearGradient id="paint5_linear_0_1" x1="639" y1="866.778" x2="668.245" y2="924.311" gradientUnits="userSpaceOnUse">
<stop stop-color="#09C6F9"/>
<stop offset="1" stop-color="#045DE9"/>
</linearGradient>
<linearGradient id="paint6_linear_0_1" x1="639" y1="866.778" x2="668.245" y2="924.311" gradientUnits="userSpaceOnUse">
<stop stop-color="#09C6F9"/>
<stop offset="1" stop-color="#045DE9"/>
</linearGradient>
<linearGradient id="paint7_linear_0_1" x1="639" y1="866.778" x2="668.245" y2="924.311" gradientUnits="userSpaceOnUse">
<stop stop-color="#09C6F9"/>
<stop offset="1" stop-color="#045DE9"/>
</linearGradient>
<linearGradient id="paint8_linear_0_1" x1="518" y1="860.718" x2="559.936" y2="925.635" gradientUnits="userSpaceOnUse">
<stop stop-color="#09C6F9"/>
<stop offset="1" stop-color="#045DE9"/>
</linearGradient>
<linearGradient id="paint9_linear_0_1" x1="760" y1="768.778" x2="789.245" y2="826.311" gradientUnits="userSpaceOnUse">
<stop stop-color="#09C6F9"/>
<stop offset="1" stop-color="#045DE9"/>
</linearGradient>
<linearGradient id="paint10_linear_0_1" x1="633" y1="770.792" x2="655.593" y2="830.053" gradientUnits="userSpaceOnUse">
<stop stop-color="#09C6F9"/>
<stop offset="1" stop-color="#045DE9"/>
</linearGradient>
<linearGradient id="paint11_linear_0_1" x1="512" y1="770.792" x2="534.593" y2="830.053" gradientUnits="userSpaceOnUse">
<stop stop-color="#09C6F9"/>
<stop offset="1" stop-color="#045DE9"/>
</linearGradient>
<linearGradient id="paint12_linear_0_1" x1="351" y1="842.852" x2="370.497" y2="881.207" gradientUnits="userSpaceOnUse">
<stop stop-color="#09C6F9"/>
<stop offset="1" stop-color="#045DE9"/>
</linearGradient>
<linearGradient id="paint13_linear_0_1" x1="391" y1="842.852" x2="410.497" y2="881.207" gradientUnits="userSpaceOnUse">
<stop stop-color="#09C6F9"/>
<stop offset="1" stop-color="#045DE9"/>
</linearGradient>
<linearGradient id="paint14_linear_0_1" x1="311" y1="842.852" x2="330.497" y2="881.207" gradientUnits="userSpaceOnUse">
<stop stop-color="#09C6F9"/>
<stop offset="1" stop-color="#045DE9"/>
</linearGradient>
<linearGradient id="paint15_linear_0_1" x1="271" y1="842.852" x2="290.497" y2="881.207" gradientUnits="userSpaceOnUse">
<stop stop-color="#09C6F9"/>
<stop offset="1" stop-color="#045DE9"/>
</linearGradient>
<clipPath id="clip0_0_1">
<rect width="544" height="420" fill="white" transform="translate(0 39)"/>
</clipPath>
</defs>
</svg>
